<svg id="Layer_1" data-name="Layer 1" xmlns="http://www.w3.org/2000/svg" viewBox="0 0 512 512"><title>paper-plane-arrow-flat</title><path d="M.37,256C.37,114.82,114.82.35,256,.35S511.64,114.83,511.63,256,397.18,511.65,256,511.65.35,397.18.37,256Z" fill="#2b77c1"/><path d="M384.85,138.9a4.22,4.22,0,0,0-4.33-.4l-252.35,115a3.68,3.68,0,0,0-2.36,3.15,3.43,3.43,0,0,0,2.36,3.54c18.11,7.48,74.8,34.64,79.92,31.1L273,243.61l-61.41,52a4.54,4.54,0,0,0-.79,2.75l11.81,72a3.78,3.78,0,0,0,2.75,3.56h1.18a4.49,4.49,0,0,0,3.15-1.18l28.74-57.87,55.9,36.6a2.39,2.39,0,0,0,3.15,0,3.5,3.5,0,0,0,2.36-2.36L386,143.23a4.44,4.44,0,0,0-1.18-4.32Z" fill="#fff" fill-rule="evenodd"/></svg>